<svg width="89" height="100" viewBox="0 0 89 100" fill="none" xmlns="http://www.w3.org/2000/svg">
<path d="M32.6084 100C29.044 100 25.4796 100 21.7277 99.9269C16.1253 96.9435 14.0891 92.1013 14.1704 85.9777C14.2343 81.1654 14.1698 76.3515 14.1851 71.5384C14.2042 65.4785 12.1951 60.264 8.17016 55.9274C0.865075 48.0565 -1.42398 38.6387 0.833792 28.1471C3.63207 15.1438 11.0087 5.915 22.9023 0.810726C25.0246 -0.100096 27.246 -0.121787 29.4901 0.272981C32.2568 0.759675 34.4037 2.43191 36.5366 4.16969C42.0216 8.63855 48.6903 8.6771 54.2291 4.30613C55.0297 3.67436 55.8141 3.01678 56.6437 2.42934C60.2019 -0.0901635 64.0381 -0.693307 68.098 0.823568C72.8616 2.60338 76.9286 5.52793 80.4579 9.29371C84.3189 13.4133 87.019 18.2866 89 23.6285C89 31.0714 89 38.5143 88.9778 46.1888C87.5031 49.8404 85.5932 52.9275 83.0717 55.6141C78.7892 60.177 76.6763 65.6596 76.7578 72.0844C76.8224 77.1731 76.837 82.2647 76.749 87.3527C76.6692 91.9698 75.0723 95.8826 71.358 98.6394C70.695 99.1315 69.9809 99.5484 69.2903 100C65.7259 100 62.1615 100 58.4141 99.9227C54.387 97.7483 52.0249 94.4904 51.2251 90.0276C50.794 87.622 51.0455 85.1766 50.8859 82.7555C50.6806 79.642 48.4292 77.4921 45.4533 77.503C42.5149 77.5138 40.2408 79.7248 40.0681 82.8171C39.9858 84.2903 40.0474 85.7715 40.0092 87.2482C39.9177 90.7841 38.9453 93.9858 36.7148 96.7196C35.5669 98.1264 34.0029 98.9423 32.6084 100ZM79.7589 18.2595C76.9011 13.8867 73.197 10.5426 68.7749 7.94515C65.0216 5.74058 61.6215 5.67058 58.4061 8.89597C58.2104 9.09225 57.9665 9.23559 57.7476 9.40717C50.2059 15.3195 40.4977 15.2563 32.996 9.25746C32.0918 8.53433 31.1908 7.78896 30.2133 7.18699C27.7442 5.66658 24.4257 6.10697 22.4636 8.20861C22.7261 8.61591 23.0017 9.04365 23.2774 9.47125C28.0153 16.8191 25.9094 26.5408 18.5868 31.032C15.1809 33.1209 11.5419 33.4198 7.76167 32.4362C6.98161 32.2332 6.21848 31.92 6.14907 33.2949C5.94207 37.3958 6.33145 41.3778 8.05754 45.1358C9.19572 47.6137 10.794 49.7301 12.5941 51.7161C17.616 57.2567 20.1724 63.831 20.1241 71.4969C20.0908 76.787 20.0876 82.0778 20.1312 87.3678C20.164 91.3469 22.9652 94.5866 26.404 94.7482C30.5863 94.9448 33.4664 92.5018 33.8982 88.1999C34.1353 85.8383 33.9203 83.4198 34.2384 81.0758C35.0725 74.9293 40.0935 70.9934 46.4453 71.3065C52.0196 71.5812 56.4881 76.2844 56.8027 82.2303C56.9083 84.2267 56.9076 86.2309 57.0636 88.2223C57.258 90.7034 58.3399 92.6851 60.479 93.8957C65.2546 96.5987 70.7678 93.1216 70.8193 87.3498C70.8669 82.0122 70.8695 76.6734 70.8181 71.336C70.7889 68.2994 71.1932 65.3455 72.1764 62.507C72.6054 61.2685 72.4212 60.6362 71.3484 59.8398C66.696 56.3862 64.5354 51.7119 65.3322 45.6668C66.5388 36.5124 74.5346 30.8889 83.1081 33.2143C84.6766 33.6398 84.9698 33.3536 84.7054 31.6687C83.9587 26.9106 82.4678 22.4502 79.7589 18.2595ZM72.5726 42.6526C70.1468 46.7856 70.9034 51.7979 74.3068 54.428C75.1317 55.0654 75.6998 55.0603 76.3624 54.1766C77.2595 52.9801 78.2581 51.8646 79.2417 50.7416C81.4617 48.207 83.0486 45.31 84.0419 42.0283C84.3939 40.8654 84.0535 40.2611 83.0737 39.7632C79.488 37.9411 75.5472 38.9529 72.5726 42.6526ZM19.838 18.7548C20.0302 16.623 19.4792 14.7088 18.2825 12.9873C17.2988 11.5721 16.9529 11.5066 15.7221 12.7194C12.3896 16.0029 9.91391 19.9035 8.13865 24.3102C7.69624 25.4084 7.97872 25.9299 9.04053 26.3123C13.8072 28.029 18.8356 24.6246 19.838 18.7548Z" fill="white"/>
</svg>
