<svg width="258" height="258" viewBox="0 0 258 258" fill="none" xmlns="http://www.w3.org/2000/svg">
<path d="M57.7461 235.227C62.6881 238.089 64.4788 234.801 65.71 231.374C67.9085 225.255 68.6149 218.77 69.6705 212.386C71.2454 202.861 72.9037 193.366 76.6499 184.385C81.8324 171.961 91.0936 165.355 103.368 165.686C113.55 165.961 120.452 171.672 125.237 180.099C130.757 189.822 132.417 200.746 134.32 211.563C135.356 217.454 136.338 223.36 137.595 229.205C138.265 232.321 139.398 235.794 143.019 236.298C146.603 236.796 147.987 233.427 149.374 230.824C161.686 207.734 169.533 183.035 175.654 157.711C178.981 143.948 181.118 129.995 182.546 115.922C184.661 95.0864 173.41 79.4095 153.677 75.7995C145.867 74.3708 138.85 76.8416 132.201 80.5941C126.835 83.6219 121.653 86.9749 116.271 89.9712C112.497 92.0722 108.547 92.9337 104.424 90.4892C98.1787 86.7858 96.8238 77.415 102.946 73.7031C114.126 66.925 124.693 58.6789 137.871 55.768C167.556 49.2114 196.285 68.0561 202.264 98.0567C204.881 111.184 203.212 124.3 201.091 137.27C195.776 169.768 186.68 201.184 172.873 231.143C170.577 236.125 168.013 241.031 165.079 245.66C154.964 261.619 132.271 261.571 121.964 245.71C117.282 238.506 116.184 230.197 114.694 222.026C113.025 212.876 112.091 203.566 108.868 194.759C107.62 191.349 106.565 187.03 102.257 186.826C97.7324 186.612 96.7097 191.118 95.4298 194.415C91.2394 205.208 90.6247 216.793 88.367 228.017C87.446 232.596 86.4096 237.132 84.463 241.394C80.2832 250.546 73.5768 256.46 63.224 257.3C51.9919 258.211 43.4394 253.762 37.8857 243.9C30.5889 230.945 24.8153 217.298 19.9403 203.274C10.6809 176.637 4.10413 149.391 0.897241 121.318C-2.05709 95.4554 7.97493 73.0902 28.3178 61.4119C32.4379 59.0466 36.5943 57.8592 41.0244 60.5809C47.5893 64.6142 48.1059 74.1662 41.2729 78.0913C25.1415 87.3575 20.1666 101.077 22.0588 118.94C26.0607 156.719 36.2353 192.645 52.6662 226.839C54.0291 229.675 55.861 232.286 57.7461 235.227Z" fill="white"/>
<path d="M70.3489 138.293C70.0082 146.246 69.6384 153.725 69.3538 161.207C69.1159 167.46 64.9714 172.005 59.3077 172.093C53.5551 172.181 48.9143 167.414 48.6772 161.103C48.2892 150.771 48.9102 140.456 49.8196 130.185C51.169 114.945 53.5354 99.8931 58.4591 85.2788C72.6707 43.0967 102.99 20.4766 145.74 12.7047C156.55 10.7396 167.466 9.78596 178.42 9.21111C181.401 9.05465 183.716 7.94162 185.859 5.77422C189.39 2.20341 193.811 0.586979 198.942 0.62859C212.265 0.736622 225.589 0.622922 238.911 0.67648C250.002 0.721066 257.352 7.93087 257.325 18.6007C257.298 29.1195 250.137 36.2417 239.24 36.3233C225.751 36.4244 212.26 36.2893 198.771 36.3876C194.762 36.4168 191.033 35.5068 188.049 33.0032C185.231 30.6392 182.246 30.0935 178.808 30.3196C160.168 31.5456 141.739 33.7367 124.222 40.8654C102.569 49.6777 88.1455 65.2699 80.0959 87.0657C74.0414 103.459 71.9322 120.582 70.3489 138.293Z" fill="white"/>
</svg>
