<svg width="194" height="258" viewBox="0 0 194 258" fill="none" xmlns="http://www.w3.org/2000/svg">
<path d="M118.681 3.62059C146.735 -4.76288 168.822 4.89098 182.216 22.432C195.023 39.2034 197.035 57.8595 189.123 77.1315C183.757 90.203 177.335 102.876 170.798 115.422C163.983 128.501 152.985 136.32 138.215 138.264C135.145 138.668 134.228 139.998 134.378 142.799C134.561 146.216 136.919 145.723 139.071 145.495C145.532 144.811 149.253 146.623 150.218 151.01C151.417 156.465 148.023 160.479 141.525 161.288C134.443 162.171 134.376 162.463 134.31 169.153C134.27 173.118 135.89 174.285 139.461 173.435C141.279 173.002 143.035 172.798 144.853 173.477C148.116 174.695 150.156 176.804 150.335 180.436C150.52 184.189 149.009 186.983 145.458 188.285C143.62 188.958 141.58 189.101 139.621 189.418C135.047 190.158 132.172 196.682 134.798 200.517C135.969 202.227 137.784 201.651 139.39 201.48C145.921 200.787 149.75 203.006 150.31 207.884C150.925 213.241 147.758 216.812 141.165 217.239C135.902 217.581 133.925 219.682 134.265 225.046C134.708 232.043 132.122 238.416 126.831 242.894C117.786 250.549 108.144 258.742 95.4779 257.068C80.6132 255.104 67.9264 248.142 61.3264 233.62C59.7687 230.192 58.4629 228.403 54.6242 229.259C53.3513 229.543 51.952 229.481 50.6402 229.326C46.6955 228.86 44.2019 226.697 43.7438 222.666C43.2713 218.509 44.9946 215.485 49.0266 214.122C50.7402 213.542 52.6106 213.434 54.4036 213.081C58.9783 212.179 61.4474 206.916 59.3547 202.684C58.7136 201.388 57.6604 201.232 56.4575 201.251C54.7918 201.276 53.1231 201.407 51.4615 201.343C46.9779 201.171 44.0547 198.545 43.7053 194.477C43.3201 189.992 45.6825 186.782 50.156 185.794C51.6152 185.472 53.1081 185.306 54.576 185.019C58.9138 184.171 61.471 178.394 59.2806 174.523C58.5719 173.271 57.4622 173.227 56.281 173.247C54.7818 173.271 53.2815 173.384 51.7844 173.346C47.0325 173.229 43.9993 170.552 43.7006 166.281C43.3864 161.788 45.7683 158.717 50.3288 157.736C59.658 155.73 59.4003 155.721 59.7186 146.292C59.8898 141.219 58.381 139.117 53.1258 138.116C40.1055 135.637 30.3448 128.017 24.2024 116.335C17.5406 103.665 10.963 90.9128 5.16981 77.8327C-9.70932 44.2379 12.1031 5.70573 48.5496 0.908897C56.1639 -0.0932323 63.8111 0.612983 71.3119 2.67723C86.8587 6.95572 102.535 6.89205 118.681 3.62059ZM34.7375 101.874C40.8342 117.569 52.0478 124.044 69.0315 123.201C89.4643 122.187 109.979 122.587 130.455 122.762C143.652 122.874 152.558 116.939 158.109 105.258C163.395 94.1363 168.846 83.0938 174.119 71.9669C180.646 58.1946 178.075 40.7838 167.533 29.614C156.713 18.1502 143.441 14.0283 128.035 17.9823C107.312 23.3008 86.65 23.7005 65.9323 17.9979C61.935 16.8977 57.8221 16.0793 53.6139 16.4519C24.5547 19.0249 8.1448 48.2065 21.0414 74.3963C25.4527 83.3546 29.9436 92.2736 34.7375 101.874ZM85.8258 236.641C93.3375 242.863 100.808 242.597 108.345 236.624C109.892 235.399 111.802 234.644 113.431 233.511C117.756 230.503 119.228 226.245 117.756 220.684C104.021 222.698 90.1189 223.905 76.3665 226.761C77.9239 231.967 77.9239 231.967 85.8258 236.641ZM111.795 149.15C112.284 149.054 112.778 148.856 113.262 148.877C117.173 149.05 118.84 147.533 118.766 143.309C118.678 138.241 115.29 139.37 112.526 139.346C103.045 139.262 93.5626 139.283 84.081 139.313C74.1501 139.344 75.4238 138.397 75.3632 148.186C75.3281 153.839 76.0259 154.275 81.862 153.422C91.5484 152.008 101.252 150.711 111.795 149.15ZM85.489 180.749C95.3406 179.395 105.184 177.975 115.05 176.732C117.468 176.427 118.775 175.512 118.625 173.01C118.469 170.405 119.193 167.723 117.778 164.514C104.639 166.394 91.4011 168.284 78.1645 170.186C76.9779 170.357 75.6698 170.683 75.5618 172.071C75.3329 175.013 74.3546 178.329 76.103 180.789C77.5634 182.844 80.4073 181.511 82.6572 181.228C83.3145 181.145 83.9609 180.975 85.489 180.749ZM118.658 196.843C118.479 195.445 119.14 193.775 116.929 192.63C104.534 194.411 91.7401 196.255 78.9437 198.084C72.818 198.96 75.82 203.699 75.4882 206.775C75.082 210.542 78.2762 209.854 80.4254 209.568C91.109 208.148 101.736 206.19 112.455 205.196C117.822 204.698 119.356 202.478 118.658 196.843Z" fill="white"/>
<path d="M99.4719 46.4919C105.498 45.2938 110.45 42.4713 115.636 40.2362C120.997 37.926 125.64 39.1808 127.654 43.3734C129.815 47.8737 127.795 52.4525 122.212 54.9544C114.201 58.5437 106.412 62.5037 97.1454 62.5266C86.6188 62.5526 77.8553 57.9112 69.0089 53.3763C65.3288 51.4898 64.4142 46.4579 66.5688 42.8426C68.7104 39.2493 71.939 37.9315 75.9426 39.4941C79.815 41.0054 83.5916 42.7603 87.4263 44.3699C91.1444 45.9305 94.9679 46.9897 99.4719 46.4919Z" fill="white"/>
</svg>
