<svg width="111" height="100" viewBox="0 0 111 100" fill="none" xmlns="http://www.w3.org/2000/svg">
<path d="M37.5213 6.26162C40.4096 7.18345 43.0293 8.40929 45.3516 10.1667C46.3997 10.9599 47.098 10.8379 48.0967 10.1262C53.047 6.59842 58.6177 4.92838 64.6249 4.96071C70.1766 4.99059 75.3585 6.52684 80.0705 9.57447C80.4636 9.8287 80.8053 10.1814 81.5478 10.2299C82.6739 8.14345 83.8469 5.968 85.0223 3.79385C85.2745 3.32738 85.539 2.8678 85.7911 2.40132C86.9898 0.183738 88.1927 -0.34826 90.6218 0.199383C91.4096 0.376988 91.688 1.01217 92.0093 1.60529C93.9031 5.10128 95.7987 8.59665 97.6464 12.1178C98.1323 13.0438 98.7298 13.7296 99.6654 14.2334C102.949 16.0017 106.171 17.8884 109.456 19.6556C110.503 20.2191 110.849 20.9091 110.961 22.1333C111.19 24.6288 110.429 26.1224 108.069 27.1737C105.157 28.4712 102.453 30.2488 99.6393 31.7821C98.8243 32.2263 98.2209 32.8077 97.7681 33.6326C94.4789 39.6245 91.4768 45.7782 87.9586 51.6413C87.8014 51.9033 87.5794 52.3215 87.6775 52.5152C88.6655 54.4658 89.1309 56.818 91.1679 58.0229C93.9719 59.6816 96.8034 61.3097 99.7211 62.7449C101.313 63.528 101.123 64.7666 101.144 66.0872C101.163 67.386 101.194 68.5096 99.7028 69.2457C96.8345 70.6616 94.0939 72.3428 91.2771 73.8697C90.4531 74.3164 89.8903 74.9176 89.4527 75.754C87.8793 78.7607 86.257 81.7411 84.6371 84.7224C83.4639 86.8818 80.2549 86.9315 78.9345 84.8283C78.8019 84.6172 78.6257 84.4345 78.3557 84.0952C76.939 86.5442 75.6902 88.9242 74.1163 91.1013C71.8995 94.1677 69.3185 96.8615 66.4407 99.2822C65.8269 99.7985 65.1711 99.9604 64.4142 99.9579C61.1154 99.9473 57.8156 99.9053 54.5182 99.9731C53.1739 100.001 52.837 99.4377 52.8442 98.1681C52.8855 90.9266 52.8717 83.6848 52.8573 76.4431C52.8507 73.0729 51.0685 70.7722 47.8976 69.9636C44.6916 69.146 41.1227 71.5884 40.8174 74.9641C40.6215 77.1306 40.6893 79.324 40.6832 81.5055C40.6679 86.99 40.6462 92.4749 40.6986 97.9589C40.7127 99.4373 40.2837 100.052 38.7239 99.9966C35.5335 99.883 32.3366 99.925 29.143 99.9595C28.1896 99.9698 27.4397 99.6738 26.7213 99.0557C17.8063 91.3853 12.6037 81.7236 11.3363 69.864C10.9494 66.2437 11.1479 62.6343 11.0937 59.0205C11.0779 57.9659 10.7411 57.2549 9.97774 56.5505C1.84668 49.0473 -1.46532 39.6731 0.597997 28.7696C2.75851 17.3525 9.74782 9.86343 20.5646 6.22849C26.1175 4.36244 31.7878 4.57546 37.5213 6.26162ZM16.4046 15.9357C9.017 21.5088 5.80477 28.9193 7.20183 38.1954C8.09931 44.1544 11.1381 48.9355 15.9221 52.4526C17.4108 53.547 18.0273 54.6577 17.9215 56.52C17.7587 59.3858 17.8749 62.2681 17.8781 65.1434C17.8846 70.9271 19.0893 76.4312 21.6324 81.6156C23.6398 85.7077 26.295 89.3028 29.6169 92.3956C30.7056 93.4092 32.0069 93.2824 33.1611 92.9328C34.1723 92.6266 33.6873 91.4449 33.6944 90.6591C33.7372 85.9207 33.6933 81.1814 33.7298 76.4428C33.748 74.076 34.1894 71.7771 35.3581 69.6972C38.3232 64.4202 44.1911 61.7719 49.6275 63.2156C55.7642 64.8453 59.6317 69.8467 59.6576 76.2278C59.6772 81.0731 59.6465 85.9187 59.685 90.7638C59.6909 91.5065 59.2335 92.6151 60.1257 92.924C61.1693 93.2853 62.3979 93.4008 63.4377 92.6446C63.8194 92.3669 64.1738 92.0442 64.512 91.7118C68.6493 87.6442 71.6621 82.8393 73.5704 77.3231C74.2016 75.4986 73.9607 74.8696 72.3055 73.9361C69.4677 72.3358 66.6513 70.6886 63.749 69.2182C62.4278 68.5489 62.2991 67.5634 62.3667 66.3355C62.4399 65.0046 62.0362 63.6076 63.7129 62.7787C66.3454 61.4774 68.8549 59.9213 71.4573 58.5536C72.7157 57.8922 73.652 57.0256 74.3106 55.7301C75.656 53.0839 77.1976 50.5378 78.4761 47.8605C79.2199 46.3029 80.1641 45.6824 81.877 45.793C83.997 45.9298 85.5476 43.2375 84.5478 41.3228C83.2229 38.7853 81.8337 36.2824 80.51 33.7443C80.0484 32.8593 79.4062 32.2469 78.5405 31.7762C75.4024 30.0699 72.33 28.2333 69.1484 26.6179C67.7141 25.8896 67.3323 24.9722 67.2484 23.3963C67.1334 21.2385 67.7697 19.9329 69.7549 19.0871C71.4359 18.3709 72.996 17.3556 74.5905 16.4384C75.0569 16.1701 75.6742 16.0386 75.8907 15.2457C70.9992 12.1359 65.7266 11.2867 60.1147 12.3574C55.4272 13.2518 51.5662 15.6853 48.2326 19.0799C46.706 20.6345 46.6891 20.6162 45.2071 19.1293C44.909 18.8302 44.6079 18.5339 44.3031 18.2418C36.5085 10.7736 25.526 9.80488 16.4046 15.9357ZM90.4721 32.773C90.8403 32.0676 91.2625 31.3853 91.5666 30.6524C92.5459 28.2926 94.1488 26.6496 96.4754 25.5822C97.9615 24.9003 99.4791 24.1698 100.978 22.926C99.0407 21.8371 97.3107 20.7518 95.4842 19.8738C93.9802 19.1507 92.979 18.0827 92.2479 16.5904C91.3244 14.7055 90.2574 12.8934 89.0929 10.7573C87.8552 13.08 86.745 15.1101 85.6885 17.1688C85.1619 18.1951 84.4584 18.9461 83.4241 19.4869C81.3985 20.546 79.4339 21.7255 77.1592 23.0168C79.3774 24.2676 81.2627 25.3993 83.2114 26.4039C84.3898 27.0114 85.1907 27.8557 85.7852 29.0505C86.7656 31.021 87.8762 32.9246 88.9555 34.8995C89.7894 34.3406 89.9529 33.5696 90.4721 32.773ZM78.6229 69.8605C79.6228 71.6503 80.6227 73.4402 81.9045 75.7346C83.5198 70.8007 86.4874 67.6716 91.132 65.9995C86.5063 64.3399 83.554 61.1985 81.9242 56.248C80.5429 58.6782 79.7028 60.8125 78.2982 62.4444C76.8654 64.109 74.4082 64.5297 72.5884 66.055C74.5913 67.4706 76.7959 68.1507 78.6229 69.8605Z" fill="white"/>
</svg>
