<svg width="257" height="227" viewBox="0 0 257 227" fill="none" xmlns="http://www.w3.org/2000/svg">
<path d="M74.2214 219.672C57.0156 209.4 48.3817 194.454 46.9571 174.89C45.9291 160.772 45.4063 146.652 45.0911 132.51C44.7935 119.16 40.8501 106.67 35.7444 94.4697C34.62 91.7829 32.5976 91.4119 30.1112 91.4223C21.9487 91.4565 13.7836 91.2929 5.62431 91.4535C1.70427 91.5307 -0.111649 90.3923 0.00530248 86.0819C0.350983 73.3407 -1.39285 75.2061 10.8008 75.0375C15.4643 74.973 20.1473 74.7742 24.7888 75.1009C29.2967 75.4182 30.3625 73.6512 30.329 69.3301C30.1002 39.8839 47.6496 14.4033 75.2438 4.19885C91.7105 -1.89055 108.228 -1.22586 124.446 5.34419C127.301 6.50077 129.593 6.529 132.46 5.3654C173.063 -11.115 217.791 13.4701 225.419 56.5034C226.454 62.3426 227.248 68.3058 226.057 75.0298C234.436 75.0298 242.208 75.0204 249.979 75.0326C256.735 75.0432 256.809 75.0547 256.75 81.522C256.652 92.3155 258.047 91.3596 246.806 91.423C239.976 91.4616 233.143 91.5293 226.318 91.3437C223.32 91.2623 221.888 92.5009 220.781 95.1787C214.873 109.479 211.602 124.164 211.515 139.792C211.425 155.88 211.918 172.192 207.689 187.91C201.213 211.981 179.855 226.327 154.382 226.561C150.4 226.597 150.224 224.098 150.222 221.277C150.215 208.592 148.811 196.054 146.041 183.687C143.961 174.398 141.242 165.302 135.83 157.304C130.632 149.623 126.034 149.608 121.007 157.35C113.677 168.638 110.868 181.487 108.781 194.509C107.412 203.046 106.608 211.649 106.64 220.328C106.662 226.461 106.245 226.758 99.9258 226.458C91.0136 226.036 82.4659 224.13 74.2214 219.672ZM203.852 94.7068C205.173 90.9522 202.449 91.4502 200.348 91.443C190.85 91.4105 181.351 91.5415 171.857 91.3626C168.058 91.291 166.159 92.4778 166.618 96.4908C166.75 97.6416 166.492 98.8401 166.65 99.9841C167.352 105.075 165.129 106.598 160.14 106.539C140.482 106.308 120.819 106.437 101.157 106.431C90.7329 106.429 90.5874 106.432 90.2951 95.8994C90.1937 92.2473 88.5942 91.3909 85.3819 91.42C75.5522 91.5089 65.721 91.419 55.8906 91.4525C54.8081 91.4562 53.5109 91.1315 52.4125 92.9787C61.85 114.551 61.7594 137.866 61.8985 161.2C61.9369 167.649 62.8928 174.125 63.8395 180.528C66.0682 195.601 80.7046 207.806 90.7681 208.236C92.0405 198.946 92.9455 189.54 95.1304 180.352C98.1522 167.644 101.817 155.139 110.33 144.869C121.473 131.426 137.01 132.004 147.457 145.956C148.354 147.154 149.18 148.411 149.975 149.68C157.912 162.359 161.314 176.558 163.735 191.064C164.703 196.86 165.412 202.7 166.244 208.554C180.027 205.491 191.04 193.56 193.114 180.078C195.249 166.2 195.033 152.21 195.292 138.234C195.565 123.486 198.083 109.13 203.852 94.7068ZM143.931 18.2979C140.078 19.4216 136.246 20.7466 132.944 22.9884C129.703 25.1892 127.179 24.7312 123.833 22.9481C106.5 13.7103 88.828 13.4187 71.9897 23.6543C54.9462 34.0146 46.194 49.5437 46.6113 69.893C46.69 73.7346 47.7632 75.1936 51.7778 75.0941C61.6016 74.8505 71.4356 75.043 81.2653 75.011C91.096 74.9789 90.354 76.0283 90.1131 66.2619C89.9956 61.4988 91.5159 59.8873 96.3654 59.9424C116.023 60.1658 135.684 60.0286 155.343 60.0275C166.184 60.0268 166.283 60.0267 166.58 70.6047C166.668 73.7415 167.609 75.1023 170.918 75.068C182.579 74.9473 194.243 74.9717 205.905 75.0655C208.795 75.0887 210.174 74.1798 210.202 71.0908C210.255 65.4118 209.982 59.8346 208.529 54.2768C203.076 33.405 179.786 9.65197 143.931 18.2979ZM149.678 88.9885C150.587 86.9212 149.963 84.7186 150.241 82.6043C150.866 77.8562 148.984 76.1769 144.141 76.3434C134.696 76.6682 125.232 76.438 115.775 76.4495C106.252 76.4611 105.253 77.684 106.654 87.0168C106.957 89.0329 107.789 90.0455 109.802 90.0117C122.886 89.7917 135.982 90.6528 149.678 88.9885Z" fill="white"/>
</svg>
