<svg width="229" height="227" viewBox="0 0 229 227" fill="none" xmlns="http://www.w3.org/2000/svg">
<path d="M74.9915 227L45.9715 183.589H17.5924C7.89424 183.589 0 175.723 0 166.059V91.7761C0 82.1119 7.89424 74.2454 17.5924 74.2454H104.362V17.5307C104.362 7.86652 112.256 0 121.954 0H211.408C221.113 0 229 7.86652 229 17.5307V76.9567C229 86.6209 221.106 94.4874 211.408 94.4874H190.707L176.543 122.722L171.735 120.33L186.644 90.6173C187.106 89.711 188.03 89.139 189.044 89.139H211.408C218.146 89.139 223.633 83.6718 223.633 76.9567V17.5307C223.633 10.8155 218.154 5.34834 211.408 5.34834H121.954C115.216 5.34834 109.729 10.8155 109.729 17.5307V74.2454H129.409C138.213 74.2454 145.518 80.7154 146.8 89.139H166.681V94.4874H147.001V166.059C147.001 175.73 139.107 183.589 129.409 183.589H77.2279V178.234H129.409C136.148 178.234 141.634 172.774 141.634 166.051V91.7686C141.634 85.0535 136.155 79.5863 129.409 79.5863H17.5924C10.8536 79.5863 5.36719 85.0535 5.36719 91.7686V166.051C5.36719 172.766 10.8536 178.234 17.5924 178.234H47.4102C48.3121 178.234 49.147 178.687 49.6465 179.429L79.4642 224.036L74.9915 227ZM169.499 58.3489H164.124C164.124 49.2939 165.742 45.8918 171.638 42.5342C175.775 40.1794 177.453 37.587 177.453 33.5831C177.453 26.4372 171.668 23.9041 166.711 23.9041C160.658 23.9041 155.909 28.1605 155.909 33.5831H150.535C150.535 25.1595 157.639 18.5558 166.711 18.5558C176.193 18.5558 182.827 24.7361 182.827 33.5831C182.827 41.4199 177.96 45.0895 174.299 47.1768C170.408 49.3979 169.499 50.6904 169.499 58.3489ZM80.9551 128.954C80.9551 133.055 77.6155 136.383 73.5006 136.383C69.3858 136.383 66.0462 133.055 66.0462 128.954C66.0462 124.854 69.3858 121.526 73.5006 121.526C77.6155 121.526 80.9551 124.854 80.9551 128.954ZM110.773 121.526C106.658 121.526 103.318 124.854 103.318 128.954C103.318 133.055 106.658 136.383 110.773 136.383C114.888 136.383 118.227 133.055 118.227 128.954C118.227 124.854 114.888 121.526 110.773 121.526ZM36.2285 121.526C32.1137 121.526 28.7741 124.854 28.7741 128.954C28.7741 133.055 32.1137 136.383 36.2285 136.383C40.3434 136.383 43.6829 133.055 43.6829 128.954C43.6829 124.854 40.3434 121.526 36.2285 121.526ZM166.681 74.1711C169.253 74.1711 171.34 72.0912 171.34 69.5285C171.34 66.9657 169.253 64.8858 166.681 64.8858C164.109 64.8858 162.022 66.9657 162.022 69.5285C162.022 72.0912 164.109 74.1711 166.681 74.1711Z" fill="#02719B"/>
</svg>
