<svg width="96" height="100" viewBox="0 0 96 100" fill="none" xmlns="http://www.w3.org/2000/svg">
<path d="M44.6503 75.4668C42.4209 80.6104 41.5287 85.9296 41.2408 91.3867C41.1407 93.2839 40.927 95.1759 41.0037 97.0786C41.0362 97.8841 40.7127 98.164 39.8928 98.2118C27.8835 98.9119 18.4453 90.275 18.2491 78.312C18.1803 74.1143 16.6138 70.6015 13.8035 67.5388C9.03496 62.3422 6.80089 56.1393 7.04231 49.1612C7.50669 35.7383 17.6466 26.769 27.9706 25.1288C35.5008 23.9324 42.2055 25.5878 48.1738 30.2215C49.1349 30.9677 49.6775 30.897 50.5769 30.1904C59.4068 23.2523 71.4159 22.7873 80.6782 29.1394C86.9604 33.4477 90.6035 39.4482 91.4663 47.0532C92.3593 54.9245 90.1385 61.8014 84.8118 67.6789C82.0244 70.7545 80.5385 74.2953 80.4803 78.4981C80.3176 90.2626 70.5831 99.0466 58.7888 98.2101C57.9295 98.1491 57.7133 97.7848 57.721 97.029C57.7539 93.8122 57.5535 90.5992 57.1583 87.4149C56.5208 82.2783 55.4953 77.224 52.5697 72.7944C50.3706 69.4648 48.3662 69.4682 46.1667 72.7765C45.6168 73.6035 45.183 74.5071 44.6503 75.4668ZM80.6805 36.868C73.5271 29.4749 62.7457 28.5332 54.567 34.5534C53.6634 35.2185 53.4889 35.7426 54.1364 36.7584C56.4699 40.4192 57.6435 44.4681 57.9149 48.7932C57.9803 49.8353 57.6346 50.3042 56.5506 50.255C55.4166 50.2036 54.2784 50.2351 53.1421 50.241C52.3711 50.245 51.981 49.9416 51.9924 49.1077C52.0138 47.5551 51.6555 46.0495 51.2062 44.5775C47.2474 31.6088 31.5693 26.254 20.6815 34.5662C11.2251 41.7855 10.2694 54.8983 18.2977 63.7037C22.0483 67.8174 24.0973 72.5723 24.1285 78.2097C24.1467 81.4877 25.1315 84.5523 27.2748 87.1313C29.2943 89.5614 31.7824 91.2614 34.9105 91.8828C35.3194 91.3569 35.3246 90.8548 35.3532 90.3612C35.608 85.9701 36.2913 81.6466 37.5921 77.442C38.8191 73.4758 40.3918 69.66 43.5526 66.773C45.8759 64.6509 48.5773 63.7127 51.7098 64.7237C54.7536 65.7062 56.7117 67.9497 58.2182 70.6058C61.1743 75.8174 62.4566 81.5217 63.1187 87.415C63.2854 88.8987 63.1357 90.4598 63.7252 91.8825C69.8342 90.7788 74.5692 84.8695 74.608 78.215C74.6406 72.636 76.5403 67.8291 80.3535 63.8281C87.4158 56.4181 87.6149 44.4796 80.6805 36.868Z" fill="white"/>
<path d="M80.3429 13.3864C79.1635 14.0577 77.9748 13.8044 76.8102 13.7637C75.0055 13.7007 74.8262 13.8474 74.8211 15.5788C74.8184 16.5287 74.7985 17.4788 74.8154 18.4283C74.8278 19.1231 74.5058 19.3999 73.8249 19.3897C72.5087 19.37 71.1918 19.3699 69.8756 19.3872C69.1788 19.3963 68.8991 19.0796 68.9104 18.4006C68.9285 17.3153 68.8531 16.226 68.9215 15.1449C68.9902 14.0592 68.5033 13.6757 67.4856 13.7023C66.4876 13.7283 65.4874 13.6746 64.4898 13.7072C63.6412 13.7349 63.2168 13.413 63.2368 12.5311C63.2623 11.4008 63.2683 10.2691 63.2423 9.13894C63.2204 8.18656 63.7116 7.86383 64.5924 7.87701C65.6816 7.89331 66.7716 7.8525 67.8608 7.86743C68.6101 7.8777 68.9263 7.5493 68.9104 6.80303C68.8863 5.67278 68.9317 4.54105 68.9067 3.41085C68.8903 2.67065 69.1853 2.33784 69.9446 2.35279C71.2152 2.37782 72.4871 2.37592 73.7577 2.34982C74.4947 2.33469 74.8434 2.61441 74.8201 3.37922C74.7912 4.32814 74.9001 5.28708 74.8031 6.2267C74.6629 7.5853 75.2486 7.99273 76.5219 7.87951C77.4221 7.79946 78.3363 7.88482 79.2442 7.87723C80.0699 7.87033 80.529 8.20217 80.5014 9.08262C80.4576 10.4817 80.4345 11.8813 80.3429 13.3864Z" fill="white"/>
<path d="M7.00116 17.638C7.001 16.6454 7.06163 15.7798 6.98673 14.926C6.88461 13.7621 7.40235 13.4002 8.4937 13.4866C9.30657 13.5509 10.1287 13.5005 10.9468 13.4979C12.7176 13.4921 12.7181 13.4912 12.7228 11.6617C12.7251 10.8014 12.7538 9.9399 12.7181 9.08108C12.6857 8.30116 12.9688 7.87442 13.7945 7.87981C15.0214 7.88783 16.2483 7.88018 17.4752 7.88395C18.2513 7.88633 18.6355 8.24775 18.6194 9.0535C18.5969 10.185 18.6441 11.3179 18.6173 12.4492C18.5995 13.1999 18.9052 13.5202 19.6642 13.5012C20.7542 13.474 21.846 13.5215 22.9359 13.494C23.7108 13.4745 24.1256 13.7201 24.0985 14.5737C24.0582 15.8403 24.0646 17.1094 24.0905 18.3767C24.1064 19.1548 23.7282 19.4076 23.0049 19.3925C21.9147 19.3696 20.8225 19.4208 19.7334 19.3806C18.899 19.3497 18.5938 19.711 18.6153 20.5101C18.6445 21.596 18.5858 22.6846 18.6259 23.7698C18.6597 24.6853 18.315 25.1061 17.3605 25.0681C16.2261 25.023 15.0867 25.0129 13.9531 25.0652C12.9774 25.1103 12.6774 24.6715 12.7148 23.7668C12.7596 22.682 12.6968 21.5931 12.7276 20.5072C12.751 19.6834 12.3798 19.3673 11.5796 19.39C10.5806 19.4184 9.57318 19.3209 8.58212 19.4132C7.28387 19.5343 6.84483 18.9707 7.00116 17.638Z" fill="white"/>
<path d="M35.5411 2.44404C37.0656 2.38579 38.4674 2.39035 39.8677 2.34836C40.6569 2.32469 41.0333 2.60379 41.0069 3.43808C40.9685 4.65344 40.9769 5.87153 41.0084 7.08734C41.0285 7.86075 40.7746 8.26477 39.9283 8.24022C38.6631 8.20353 37.3961 8.23202 36.1299 8.22398C35.7117 8.22133 35.1936 8.17753 35.1901 7.66926C35.1784 5.94025 34.7918 4.18894 35.5411 2.44404Z" fill="white"/>
<path d="M85.8182 20.4161C85.7681 19.5712 86.0313 19.1823 86.8185 19.1994C88.0877 19.2269 89.3581 19.2195 90.6276 19.1987C91.3445 19.1869 91.7334 19.4369 91.7186 20.2129C91.6945 21.4776 91.7007 22.7432 91.7162 24.0081C91.7254 24.7637 91.344 25.0578 90.6263 25.051C89.4019 25.0395 88.1771 25.0262 86.9532 25.0507C86.1602 25.0666 85.7865 24.7624 85.8117 23.9367C85.8462 22.8082 85.8179 21.6777 85.8182 20.4161Z" fill="white"/>
</svg>
